#!OML:ASF G:\JayActor3\Patient Classification 1\Patient 1\Session 5\male.ASF
:FULLY-SPECIFIED
:DEGREES
831
root -28.5479 17.8378 -5.15053 -39.2135 84.684 -52.6279
lowerback 20.6431 -1.53139 3.8847
upperback 7.44613 -0.799622 -0.71819
thorax -3.52671 -0.148119 -2.80471
lowerneck 6.08595 0.807636 2.64137
upperneck -17.4248 1.82982 0.700243
head -6.27238 0.783579 -0.361033
rclavicle 5.1684e-015 3.85642e-014
rhumerus -30.0433 -3.28837 -88.6167
rradius 26.0012
rwrist 4.47302
rhand -21.8294 -9.13867
rfingers 7.12502
rthumb 4.57352 -39.0693
lclavicle 5.1684e-015 3.85642e-014
lhumerus -31.2807 6.238 82.9156
lradius 26.9818
lwrist 21.6456
lhand -19.516 12.6695
lfingers 7.12502
lthumb 6.80707 42.54
rfemur -21.5761 7.65151 24.6401
rtibia 52.2584
rfoot 13.8683 -8.47866
rtoes 3.32135
lfemur -35.9676 13.5968 -24.0576
ltibia 22.7972
lfoot 20.1712 -9.28664
ltoes -8.22167
832
root -28.6838 17.8134 -5.13918 -39.862 84.5283 -53.1598
lowerback 20.591 -1.4853 3.98496
upperback 7.44026 -0.722706 -0.685392
thorax -3.5008 -0.109973 -2.84471
lowerneck 6.10883 0.810241 2.65026
upperneck -17.3382 1.83299 0.714844
head -6.24899 0.783067 -0.357626
rclavicle -1.98785e-015 -6.36111e-015
rhumerus -30.0205 -3.25228 -88.6676
rradius 26.0421
rwrist 4.41016
rhand -21.8355 -9.12227
rfingers 7.12502
rthumb 4.56766 -39.053
lclavicle -1.98785e-015 -6.36111e-015
lhumerus -31.3053 6.22649 82.9358
lradius 26.9619
lwrist 21.7403
lhand -19.4104 12.6911
lfingers 7.12502
lthumb 6.90898 42.5584
rfemur -20.6641 7.96012 24.9847
rtibia 50.4462
rfoot 13.1852 -8.65696
rtoes 3.47992
lfemur -36.1993 13.6147 -23.9214
ltibia 22.5146
lfoot 20.5173 -9.12521
ltoes -7.69365
833
root -28.8231 17.788 -5.12712 -40.6179 84.3644 -53.8078
lowerback 20.5552 -1.4449 4.1044
upperback 7.42585 -0.64893 -0.650432
thorax -3.49252 -0.0738036 -2.89249
lowerneck 6.12984 0.813642 2.66275
upperneck -17.2564 1.83668 0.722318
head -6.22669 0.783179 -0.357137
rclavicle 1.07344e-014 1.43125e-014
rhumerus -29.9991 -3.20269 -88.7301
rradius 26.0937
rwrist 4.34324
rhand -21.8389 -9.09936
rfingers 7.12502
rthumb 4.56436 -39.0302
lclavicle 1.07344e-014 1.43125e-014
lhumerus -31.3414 6.21184 82.9484
lradius 26.9585
lwrist 21.8429
lhand -19.3292 12.7147
lfingers 7.12502
lthumb 6.98738 42.5794
rfemur -19.8273 8.26167 25.3459
rtibia 48.7691
rfoot 12.3966 -8.48207
rtoes 3.17174
lfemur -36.4486 13.6102 -23.7548
ltibia 22.2225
lfoot 20.9039 -8.93462
ltoes -7.13905
834
root -28.9662 17.7618 -5.11457 -41.4028 84.1916 -54.4995
lowerback 20.5318 -1.40875 4.23472
upperback 7.40579 -0.57793 -0.611246
thorax -3.49667 -0.0393747 -2.94124
lowerneck 6.1407 0.817478 2.6711
upperneck -17.1822 1.83991 0.725423
head -6.20499 0.783809 -0.357303
rclavicle 1.07344e-014 2.94201e-014
rhumerus -29.9715 -3.13348 -88.7994
rradius 26.1544
rwrist 4.27393
rhand -21.8419 -9.08135
rfingers 7.12502
rthumb 4.56146 -39.0122
lclavicle 1.07344e-014 2.94201e-014
lhumerus -31.3843 6.19329 82.961
lradius 26.9761
lwrist 21.9477
lhand -19.2787 12.7189
lfingers 7.12502
lthumb 7.03612 42.5819
rfemur -19.1002 8.51922 25.7261
rtibia 47.3047
rfoot 11.45 -7.94213
rtoes 2.16583
lfemur -36.7281 13.5697 -23.5558
ltibia 21.9269
lfoot 21.3337 -8.68373
ltoes -6.56883
835
root -29.1134 17.7354 -5.10167 -42.1806 84.0139 -55.2014
lowerback 20.5152 -1.37651 4.37122
upperback 7.38538 -0.510204 -0.569022
thorax -3.50468 -0.0065861 -2.98946
lowerneck 6.14375 0.822473 2.67991
upperneck -17.129 1.84428 0.719721
head -6.18849 0.785773 -0.360517
rclavicle -3.57812e-015 -1.11319e-014
rhumerus -29.9273 -3.05397 -88.8724
rradius 26.2206
rwrist 4.20946
rhand -21.8523 -9.07395
rfingers 7.12502
rthumb 4.55141 -39.0051
lclavicle -3.57812e-015 -1.11319e-014
lhumerus -31.4226 6.1731 82.9759
lradius 27.0145
lwrist 22.0422
lhand -19.2686 12.7203
lfingers 7.12502
lthumb 7.04588 42.583
rfemur -18.509 8.68663 26.1308
rtibia 46.0982
rfoot 10.2937 -7.15597
rtoes 0.392733
lfemur -37.042 13.4873 -23.327
ltibia 21.6255
lfoot 21.834 -8.33936
ltoes -5.94404
836
root -29.2655 17.7093 -5.08862 -42.8938 83.8408 -55.8634
lowerback 20.5015 -1.34857 4.5014
upperback 7.36832 -0.448681 -0.523974
thorax -3.5108 0.0232759 -3.0296
lowerneck 6.13511 0.829968 2.68734
upperneck -17.109 1.85159 0.70274
head -6.18034 0.790313 -0.367446
rclavicle -4.77083e-015 3.29983e-014
rhumerus -29.8522 -2.96657 -88.9441
rradius 26.2849
rwrist 4.15628
rhand -21.8714 -9.0742
rfingers 7.12502
rthumb 4.53295 -39.0057
lclavicle -4.77083e-015 3.29983e-014
lhumerus -31.4443 6.15769 82.9961
lradius 27.0712
lwrist 22.1237
lhand -19.2828 12.6879
lfingers 7.12502
lthumb 7.03213 42.551
rfemur -18.0736 8.73008 26.5561
rtibia 45.1514
rfoot 8.90942 -6.35613
rtoes -2.15014
lfemur -37.4008 13.3573 -23.0813
ltibia 21.3144
lfoot 22.4254 -7.8545
ltoes -5.20694
837
root -29.4222 17.6842 -5.07567 -43.4633 83.6793 -56.4027
lowerback 20.4951 -1.32408 4.61591
upperback 7.3585 -0.393805 -0.480758
thorax -3.51324 0.0502172 -3.06121
lowerneck 6.12052 0.839619 2.69127
upperneck -17.1363 1.86259 0.6782
head -6.18601 0.797589 -0.376757
rclavicle -1.90833e-014 3.57812e-015
rhumerus -29.7461 -2.87445 -89.0156
rradius 26.3527
rwrist 4.11349
rhand -21.9021 -9.0869
rfingers 7.12502
rthumb 4.50333 -39.019
lclavicle -1.90833e-014 3.57812e-015
lhumerus -31.4431 6.15277 83.0198
lradius 27.1402
lwrist 22.1872
lhand -19.3317 12.639
lfingers 7.12502
lthumb 6.98495 42.5037
rfemur -17.7933 8.63699 26.9916
rtibia 44.4267
rfoot 7.27983 -5.76536
rtoes -4.63143
lfemur -37.7957 13.1795 -22.8294
ltibia 20.984
lfoot 23.1277 -7.18625
ltoes -4.30652
838
root -29.5836 17.661 -5.06285 -43.9258 83.5317 -56.8575
lowerback 20.4996 -1.30179 4.71786
upperback 7.35552 -0.343126 -0.439575
thorax -3.51412 0.0754482 -3.08688
lowerneck 6.10556 0.849214 2.69619
upperneck -17.2137 1.87503 0.64597
head -6.20737 0.806185 -0.389147
rclavicle -8.74653e-015 -1.19271e-014
rhumerus -29.6119 -2.78892 -89.0834
rradius 26.4247
rwrist 4.08238
rhand -21.9456 -9.10061
rfingers 7.12502
rthumb 4.46131 -39.0336
lclavicle -8.74653e-015 -1.19271e-014
lhumerus -31.4186 6.14965 83.0484
lradius 27.2253
lwrist 22.234
lhand -19.3911 12.5457
lfingers 7.12502
lthumb 6.92767 42.4123
rfemur -17.6601 8.4165 27.4335
rtibia 43.8649
rfoot 5.54536 -5.50333
rtoes -6.64545
lfemur -38.2233 12.9533 -22.5688
ltibia 20.6222
lfoot 23.9589 -6.30357
ltoes -3.16235
839
root -29.7491 17.6402 -5.05009 -44.2967 83.3971 -57.2373
lowerback 20.5259 -1.28133 4.80387
upperback 7.35911 -0.295942 -0.398689
thorax -3.51936 0.0991869 -3.10303
lowerneck 6.08912 0.85865 2.6956
upperneck -17.3375 1.88867 0.611518
head -6.2432 0.816017 -0.401778
rclavicle 3.57812e-015 2.14687e-014
rhumerus -29.4518 -2.70284 -89.1471
rradius 26.4947
rwrist 4.05943
rhand -22.0037 -9.11083
rfingers 7.12502
rthumb 4.4052 -39.045
lclavicle 3.57812e-015 2.14687e-014
lhumerus -31.3741 6.14739 83.0841
lradius 27.3239
lwrist 22.2828
lhand -19.4624 12.4097
lfingers 7.12502
lthumb 6.85878 42.2786
rfemur -17.6519 8.10093 27.8756
rtibia 43.4097
rfoot 3.82609 -5.5311
rtoes -7.88421
lfemur -38.6611 12.6811 -22.2929
ltibia 20.2112
lfoot 24.9023 -5.20599
ltoes -1.82979
840
root -29.9181 17.6224 -5.03741 -44.6074 83.2701 -57.5678
lowerback 20.5837 -1.26104 4.88481
upperback 7.36417 -0.247638 -0.360198
thorax -3.53893 0.123392 -3.11928
lowerneck 6.083 0.864644 2.69335
upperneck -17.4974 1.90032 0.581747
head -6.29243 0.824616 -0.412888
rclavicle 1.15295e-014 1.43125e-014
rhumerus -29.2868 -2.61289 -89.2118
rradius 26.5744
rwrist 4.03322
rhand -22.0691 -9.13115
rfingers 7.12502
rthumb 4.34205 -39.0666
lclavicle 1.15295e-014 1.43125e-014
lhumerus -31.3201 6.12996 83.1239
lradius 27.4336
lwrist 22.3433
lhand -19.5349 12.2511
lfingers 7.12502
lthumb 6.78881 42.1223
rfemur -17.7477 7.72436 28.3148
rtibia 43.0219
rfoot 2.23874 -5.76557
rtoes -8.44406
lfemur -39.0907 12.369 -21.9901
ltibia 19.7385
lfoot 25.9572 -3.98965
ltoes -0.533959
841
root -30.09 17.6078 -5.02448 -44.9523 83.1511 -57.9431
lowerback 20.6759 -1.24267 4.96558
upperback 7.36671 -0.199258 -0.321479
thorax -3.5787 0.147244 -3.13545
lowerneck 6.0935 0.867628 2.68706
upperneck -17.6837 1.91124 0.564318
head -6.35321 0.832078 -0.41972
rclavicle -6.36111e-015 1.59028e-015
rhumerus -29.1246 -2.50352 -89.2809
rradius 26.6635
rwrist 3.98894
rhand -22.134 -9.15761
rfingers 7.12502
rthumb 4.27934 -39.0944
lclavicle -6.36111e-015 1.59028e-015
lhumerus -31.2564 6.09633 83.1665
lradius 27.5427
lwrist 22.4211
lhand -19.6051 12.0737
lfingers 7.12502
lthumb 6.72104 41.947
rfemur -17.9458 7.31328 28.7509
rtibia 42.6912
rfoot 0.828788 -6.13811
rtoes -8.39234
lfemur -39.4976 11.9999 -21.6399
ltibia 19.1927
lfoot 27.0904 -2.71296
ltoes 0.572347
842
root -30.2629 17.5958 -5.01153 -45.2108 83.021 -58.2252
lowerback 20.802 -1.21817 5.04529
upperback 7.37065 -0.140462 -0.283838
thorax -3.63326 0.176078 -3.15491
lowerneck 6.12694 0.866401 2.67677
upperneck -17.8819 1.91995 0.564045
head -6.4222 0.837172 -0.420559
rclavicle 1.31198e-014 5.1684e-015
rhumerus -28.9716 -2.36852 -89.3553
rradius 26.7565
rwrist 3.93011
rhand -22.1893 -9.18804
rfingers 7.12502
rthumb 4.22593 -39.1259
lclavicle 1.31198e-014 5.1684e-015
lhumerus -31.1869 6.04189 83.2126
lradius 27.6442
lwrist 22.5211
lhand -19.663 11.8915
lfingers 7.12502
lthumb 6.66512 41.7666
rfemur -18.2233 6.91262 29.1775
rtibia 42.4236
rfoot -0.440334 -6.54102
rtoes -8.18338
lfemur -39.8446 11.5774 -21.2201
ltibia 18.5751
lfoot 28.2339 -1.33028
ltoes 1.70216
843
root -30.4371 17.5854 -4.99816 -45.5401 82.8966 -58.5901
lowerback 20.9412 -1.19623 5.12234
upperback 7.37198 -0.0840346 -0.241678
thorax -3.69743 0.203363 -3.16769
lowerneck 6.16727 0.866111 2.66014
upperneck -18.0693 1.93124 0.577597
head -6.48925 0.842785 -0.416112
rclavicle -1.55052e-014 -1.78906e-014
rhumerus -28.8262 -2.18984 -89.4363
rradius 26.8578
rwrist 3.85029
rhand -22.2353 -9.21608
rfingers 7.12502
rthumb 4.18152 -39.1548
lclavicle -1.55052e-014 -1.78906e-014
lhumerus -31.1093 5.9727 83.2659
lradius 27.7382
lwrist 22.646
lhand -19.721 11.7272
lfingers 7.12502
lthumb 6.60918 41.6041
rfemur -18.6128 6.5283 29.5885
rtibia 42.24
rfoot -1.50853 -6.90264
rtoes -8.16736
lfemur -40.1604 11.0997 -20.7443
ltibia 17.9018
lfoot 29.3775 0.0441547
ltoes 2.73786
844
root -30.6116 17.5757 -4.98457 -45.9047 82.7698 -59.0011
lowerback 21.0796 -1.17551 5.19776
upperback 7.37304 -0.0289857 -0.194489
thorax -3.7615 0.229841 -3.17396
lowerneck 6.20695 0.869098 2.64676
upperneck -18.2281 1.94653 0.594165
head -6.54712 0.849845 -0.411311
rclavicle -6.75868e-015 1.82882e-014
rhumerus -28.6824 -1.97016 -89.5215
rradius 26.9603
rwrist 3.76279
rhand -22.2537 -9.24804
rfingers 7.12502
rthumb 4.16381 -39.1871
lclavicle -6.75868e-015 1.82882e-014
lhumerus -31.0243 5.90263 83.3216
lradius 27.8167
lwrist 22.7783
lhand -19.7629 11.595
lfingers 7.12502
lthumb 6.56874 41.4732
rfemur -19.1088 6.18108 29.98
rtibia 42.1537
rfoot -2.39223 -7.20026
rtoes -8.36071
lfemur -40.453 10.5835 -20.2131
ltibia 17.2119
lfoot 30.4923 1.32145
ltoes 3.65602
845
root -30.7859 17.5657 -4.97078 -46.3097 82.6542 -59.4643
lowerback 21.2059 -1.15949 5.26226
upperback 7.37407 0.0174175 -0.144285
thorax -3.82027 0.251986 -3.16876
lowerneck 6.24434 0.877746 2.63282
upperneck -18.3481 1.96824 0.615214
head -6.59228 0.859641 -0.405142
rclavicle 1.59028e-014 -1.15295e-014
rhumerus -28.5396 -1.72151 -89.608
rradius 27.0638
rwrist 3.68069
rhand -22.2367 -9.27396
rfingers 7.12502
rthumb 4.1802 -39.2127
lclavicle 1.59028e-014 -1.15295e-014
lhumerus -30.938 5.83598 83.3769
lradius 27.8852
lwrist 22.9081
lhand -19.7925 11.5169
lfingers 7.12502
lthumb 6.54009 41.3959
rfemur -19.7063 5.87045 30.3343
rtibia 42.1731
rfoot -3.08951 -7.40115
rtoes -8.79418
lfemur -40.7461 10.0548 -19.6621
ltibia 16.5634
lfoot 31.5275 2.52894
ltoes 4.74356
